# xmcd
#
# Track frame offsets:
#	150
#	20850
#	41212
#	62897
#	84862
#	104962
#	127800
#	146250
#	164512
#	184650
#	202687
#	221587
#	240375
#	258450
#	275587
#
# Disc length: 3921 seconds
#
# Revision: 1
# Processed by: cddbd v1.5.1PL0 Copyright (c) Steve Scherf et al.
# Submitted via: CDex 1.50Beta5
#
DISCID=da0f4f0f
DTITLE=Various Artist - NEW MUSIC BEST COLLECTION NO.1
DYEAR=1900
DGENRE=New Age
TTITLE0=安全地帯/恋の予感
TTITLE1=安全地帯/悲しみにさよなら
TTITLE2=来生たかお/夢の途中
TTITLE3=来生たかお/マイ・ラグジュアリー・ナイト
TTITLE4=加藤登紀子/ANAK(息子)
TTITLE5=加藤登紀子/時代おくれの酒場
TTITLE6=H2O/Goodbyeシーズン
TTITLE7=H2O/思い出がいっぱい
TTITLE8=来生たかお/スローモーション
TTITLE9=来生たかお/セカンドラブ
TTITLE10=安全地帯/ワインレッドの心
TTITLE11=安全地帯/碧い瞳のエリス
TTITLE12=小椋佳/泣かせて
TTITLE13=小椋佳/揺れるまなざし
TTITLE14=小椋佳/シクラメンのかほり
EXTD=
EXTT0=
EXTT1=
EXTT2=
EXTT3=
EXTT4=
EXTT5=
EXTT6=
EXTT7=
EXTT8=
EXTT9=
EXTT10=
EXTT11=
EXTT12=
EXTT13=
EXTT14=
PLAYORDER=
